<mxfile host="app.diagrams.net" agent="Mozilla/5.0 (Windows NT 10.0; Win64; x64) AppleWebKit/537.36 (KHTML, like Gecko) Chrome/129.0.0.0 Safari/537.36" version="24.7.16">
  <diagram name="Page-1" id="e7e014a7-5840-1c2e-5031-d8a46d1fe8dd">
    <mxGraphModel dx="1434" dy="830" grid="1" gridSize="10" guides="1" tooltips="1" connect="1" arrows="1" fold="1" page="1" pageScale="1" pageWidth="1169" pageHeight="826" background="none" math="0" shadow="0">
      <root>
        <mxCell id="0" />
        <mxCell id="1" parent="0" />
        <mxCell id="SyagAUwcQjJ1PSZc1hgb-41" value="&amp;nbsp;PersonalAccount&amp;nbsp;" style="swimlane;fontStyle=0;childLayout=stackLayout;horizontal=1;startSize=26;fillColor=none;horizontalStack=0;resizeParent=1;resizeParentMax=0;resizeLast=0;collapsible=1;marginBottom=0;whiteSpace=wrap;html=1;" vertex="1" parent="1">
          <mxGeometry x="780" y="370" width="310" height="370" as="geometry" />
        </mxCell>
        <mxCell id="SyagAUwcQjJ1PSZc1hgb-42" value="- accountNumber: int&lt;div&gt;&lt;br&gt;- accountHolder: String&amp;nbsp;&lt;/div&gt;&lt;div&gt;&lt;br&gt;- balance: double&amp;nbsp;&lt;/div&gt;&lt;div&gt;&lt;br&gt;- transactions: List&amp;lt;Amount&amp;gt;&lt;/div&gt;&lt;div&gt;&lt;br&gt;&lt;/div&gt;&lt;div&gt;+ PersonalAccount(accountNumber: int, accountHolder: String)&amp;nbsp;&lt;/div&gt;&lt;div&gt;&lt;br&gt;+ deposit(amount: double)&amp;nbsp;&lt;/div&gt;&lt;div&gt;&lt;br&gt;+ withdraw(amount: double)&amp;nbsp;&lt;/div&gt;&lt;div&gt;&lt;br&gt;+ printTransactionHistory()&amp;nbsp;&lt;/div&gt;&lt;div&gt;&lt;br&gt;+ getBalance(): double&amp;nbsp;&lt;/div&gt;&lt;div&gt;&lt;br&gt;+ getAccountNumber(): int&amp;nbsp;&lt;/div&gt;&lt;div&gt;&lt;br&gt;+ getAccountHolder(): String&amp;nbsp;&lt;br&gt;&lt;/div&gt;" style="text;strokeColor=none;fillColor=none;align=left;verticalAlign=top;spacingLeft=4;spacingRight=4;overflow=hidden;rotatable=0;points=[[0,0.5],[1,0.5]];portConstraint=eastwest;whiteSpace=wrap;html=1;" vertex="1" parent="SyagAUwcQjJ1PSZc1hgb-41">
          <mxGeometry y="26" width="310" height="344" as="geometry" />
        </mxCell>
        <mxCell id="SyagAUwcQjJ1PSZc1hgb-45" value="Amount" style="swimlane;fontStyle=0;childLayout=stackLayout;horizontal=1;startSize=26;fillColor=none;horizontalStack=0;resizeParent=1;resizeParentMax=0;resizeLast=0;collapsible=1;marginBottom=0;whiteSpace=wrap;html=1;" vertex="1" parent="1">
          <mxGeometry x="110" y="368" width="430" height="170" as="geometry" />
        </mxCell>
        <mxCell id="SyagAUwcQjJ1PSZc1hgb-46" value="- amount: double" style="text;strokeColor=none;fillColor=none;align=left;verticalAlign=top;spacingLeft=4;spacingRight=4;overflow=hidden;rotatable=0;points=[[0,0.5],[1,0.5]];portConstraint=eastwest;whiteSpace=wrap;html=1;" vertex="1" parent="SyagAUwcQjJ1PSZc1hgb-45">
          <mxGeometry y="26" width="430" height="26" as="geometry" />
        </mxCell>
        <mxCell id="SyagAUwcQjJ1PSZc1hgb-47" value="- transactionType: TransactionType" style="text;strokeColor=none;fillColor=none;align=left;verticalAlign=top;spacingLeft=4;spacingRight=4;overflow=hidden;rotatable=0;points=[[0,0.5],[1,0.5]];portConstraint=eastwest;whiteSpace=wrap;html=1;" vertex="1" parent="SyagAUwcQjJ1PSZc1hgb-45">
          <mxGeometry y="52" width="430" height="28" as="geometry" />
        </mxCell>
        <mxCell id="SyagAUwcQjJ1PSZc1hgb-48" value=" + Amount(amount: double, transactionType: TransactionType)&amp;nbsp;&lt;div&gt;&amp;nbsp;&lt;div&gt;&amp;nbsp;+ getAmount(): double&amp;nbsp;&lt;/div&gt;&lt;div&gt;&lt;br&gt;&lt;/div&gt;&lt;div&gt;&amp;nbsp;+ getTransactionType(): TransactionType&lt;/div&gt;&lt;div&gt;&amp;nbsp;&lt;/div&gt;&lt;div&gt;&amp;nbsp;+ toString(): String&lt;/div&gt;&lt;/div&gt;" style="text;strokeColor=none;fillColor=none;align=left;verticalAlign=top;spacingLeft=4;spacingRight=4;overflow=hidden;rotatable=0;points=[[0,0.5],[1,0.5]];portConstraint=eastwest;whiteSpace=wrap;html=1;" vertex="1" parent="SyagAUwcQjJ1PSZc1hgb-45">
          <mxGeometry y="80" width="430" height="90" as="geometry" />
        </mxCell>
        <mxCell id="SyagAUwcQjJ1PSZc1hgb-49" value="TransactionType&amp;nbsp;" style="swimlane;fontStyle=0;childLayout=stackLayout;horizontal=1;startSize=26;fillColor=none;horizontalStack=0;resizeParent=1;resizeParentMax=0;resizeLast=0;collapsible=1;marginBottom=0;whiteSpace=wrap;html=1;" vertex="1" parent="1">
          <mxGeometry x="600" y="370" width="140" height="80" as="geometry" />
        </mxCell>
        <mxCell id="SyagAUwcQjJ1PSZc1hgb-50" value="+ DEPOSIT&amp;nbsp;&lt;div&gt;&lt;br&gt;+ WITHDRAWAL&lt;/div&gt;" style="text;strokeColor=none;fillColor=none;align=left;verticalAlign=top;spacingLeft=4;spacingRight=4;overflow=hidden;rotatable=0;points=[[0,0.5],[1,0.5]];portConstraint=eastwest;whiteSpace=wrap;html=1;" vertex="1" parent="SyagAUwcQjJ1PSZc1hgb-49">
          <mxGeometry y="26" width="140" height="54" as="geometry" />
        </mxCell>
      </root>
    </mxGraphModel>
  </diagram>
</mxfile>
